<svg width="800px" height="800px" fill="#000000" version="1.1" viewBox="0 0 75.3 75.3" xmlns="http://www.w3.org/2000/svg">
 <path d="m66.1 12.1h-56.9c-5.07 0-9.2 4.13-9.2 9.2v32.7c0 5.07 4.13 9.2 9.2 9.2h56.9c5.07 0 9.2-4.13 9.2-9.2v-32.7c1e-3 -5.07-4.12-9.2-9.2-9.2zm-4.49 6-24 15.4-24-15.4h47.9zm4.49 39.1h-56.9c-1.76 0-3.2-1.44-3.2-3.2v-32.6l29.8 19.2c0.04 0.025 0.083 0.042 0.124 0.065 0.043 0.024 0.087 0.047 0.131 0.069 0.231 0.119 0.469 0.215 0.712 0.278 0.025 7e-3 0.05 0.01 0.075 0.016 0.267 0.063 0.537 0.102 0.807 0.102h2e-3 4e-3c0.27 0 0.54-0.038 0.807-0.102 0.025-6e-3 0.05-9e-3 0.075-0.016 0.243-0.063 0.48-0.159 0.712-0.278 0.044-0.022 0.088-0.045 0.131-0.069 0.041-0.023 0.084-0.04 0.124-0.065l29.8-19.2v32.6c-1e-3 1.76-1.44 3.2-3.2 3.2z"/>
</svg>
