<?xml version="1.0" encoding="UTF-8"?>
<svg version="1.1" xmlns="http://www.w3.org/2000/svg" width="400" height="400">
<path d="M0 0 C0.67627441 0.21994629 1.35254883 0.43989258 2.04931641 0.66650391 C12.42922275 4.11761687 22.23251071 8.82366858 32.12548828 13.45532227 C39.03612724 16.67730333 45.97780073 19.74296836 53.0625 22.5625 C53.84012695 22.8723584 54.61775391 23.1822168 55.41894531 23.50146484 C70.01855204 29.54408872 70.01855204 29.54408872 85.3671875 28.15625 C91.56148808 24.69679156 94.54217151 19.42589694 97.25 13.0625 C98.22807792 9.06868183 98.65446662 5.09184265 99 1 C102 2 102 2 103.140625 4.171875 C105.51465876 11.9846043 106.14431989 21.32844175 103 29 C99.53426031 35.4514276 94.75359036 39.26332773 88 42 C68.92111354 46.79261628 49.8500206 38.27042151 32.91748047 30.39428711 C-8.78598655 11.03709549 -55.08726836 -0.9503041 -100.08300781 15.26123047 C-120.36728347 23.07837491 -133.28541134 36.36470704 -142.32421875 55.85546875 C-150.27754488 75.87183228 -147.04436919 96.57404629 -139.375 116.0625 C-131.57467229 133.45565496 -117.75135997 148.66121932 -100.0546875 156.265625 C-97.70453078 156.99870141 -95.42108973 157.56384781 -93 158 C-91.2675 158.3403125 -91.2675 158.3403125 -89.5 158.6875 C-80.30979048 159.50805442 -71.76577806 158.5276693 -62.6875 157 C-60.40030433 156.62157076 -58.11255972 156.24644085 -55.82421875 155.875 C-54.32507935 155.62363281 -54.32507935 155.62363281 -52.7956543 155.3671875 C-50.15739176 155.02067219 -47.656804 154.93197804 -45 155 C-58.41194708 166.42319543 -78.87815411 168.84525568 -96 168 C-115.7257319 166.33154944 -128.79487561 159.79421563 -142 145 C-160.6364908 122.03578854 -167.83579291 96.2271377 -166 67 C-163.51460607 46.0360597 -149.6021622 28.09169602 -133.671875 15.1015625 C-95.19636485 -13.05435718 -43.90766051 -14.42302333 0 0 Z " fill="#FE6300" transform="translate(249,34)"/>
<path d="M0 0 C3.0828744 1.04790687 4.00241055 2.00379027 5.78125 4.80078125 C14.25385932 22.11186257 19.69953031 40.94831829 14.08984375 60.078125 C2.90179606 90.07332095 -24.40291126 104.06281494 -51.5378418 117.20043945 C-70.39016049 126.35256541 -88.84754111 135.97375495 -96.39355469 156.79101562 C-97.48250515 160.75753085 -97.48595101 164.65896588 -97.4375 168.75 C-97.42992676 169.66322021 -97.42235352 170.57644043 -97.41455078 171.51733398 C-97.18400944 181.29851315 -95.42589547 190.54711284 -93 200 C-92.80164551 200.78101074 -92.60329102 201.56202148 -92.39892578 202.36669922 C-87.43793289 221.34634507 -79.73205382 239.50909335 -71.90625 257.45703125 C-71.55287567 258.26828964 -71.19950134 259.07954803 -70.8354187 259.91539001 C-69.09530215 263.90336103 -67.34322331 267.88541212 -65.57080078 271.85913086 C-51.65367732 303.28771274 -51.65367732 303.28771274 -55.69921875 318.65625 C-56.62636138 320.94085463 -57.68090495 322.91894322 -59 325 C-59.65355469 326.04414062 -59.65355469 326.04414062 -60.3203125 327.109375 C-70.7413326 342.25686869 -90.4174443 348.27292107 -107.67626953 351.50048828 C-119.8113811 353.57265019 -131.70305608 354.44034149 -144 354 C-143.01127608 351.41739078 -142.36405792 350.2155549 -139.95068359 348.78662109 C-139.10844238 348.45227051 -138.26620117 348.11791992 -137.3984375 347.7734375 C-136.44517578 347.38663818 -135.49191406 346.99983887 -134.50976562 346.60131836 C-133.47529297 346.1966333 -132.44082031 345.79194824 -131.375 345.375 C-129.1848944 344.48828479 -126.99479027 343.60156594 -124.8046875 342.71484375 C-122.53675163 341.80916104 -120.2685245 340.90420733 -118 340 C-91.09417813 331.13317025 -91.09417813 331.13317025 -71 313 C-70.49300282 307.73917021 -72.03365305 303.7164319 -74.078125 298.97265625 C-74.4008136 298.19962662 -74.7235022 297.42659698 -75.05596924 296.63014221 C-75.75039715 294.96886861 -76.44942198 293.30951049 -77.15258789 291.6519165 C-79.01578396 287.25558207 -80.84074084 282.84335404 -82.671875 278.43359375 C-83.04135254 277.54647705 -83.41083008 276.65936035 -83.79150391 275.74536133 C-123.12866696 181.19189317 -123.12866696 181.19189317 -108.265625 143.53515625 C-105.07560996 137.14528044 -100.21258774 131.82164366 -95 127 C-94.54753906 126.55398437 -94.09507812 126.10796875 -93.62890625 125.6484375 C-81.23240814 114.08661632 -63.24142631 107.59251062 -47.91577148 100.87939453 C-28.45640612 92.34738674 -7.93725268 82.38382871 0.9921875 61.87109375 C3.80027195 53.87131829 4.38457506 46.76249439 4.375 38.3125 C4.37693359 36.54229492 4.37693359 36.54229492 4.37890625 34.73632812 C4.25722694 24.47654962 2.77693333 14.79394769 0.3671875 4.83984375 C0 3 0 3 0 0 Z " fill="#FE6300" transform="translate(381,22)"/>
<path d="M0 0 C0 3.91349654 -1.33996096 5.31721565 -3.55078125 8.53125 C-4.31436313 9.65327079 -5.07786914 10.77534322 -5.84130859 11.89746094 C-6.24468445 12.48491089 -6.6480603 13.07236084 -7.06365967 13.6776123 C-14.93039117 25.15725011 -22.33314838 36.77619997 -29 49 C-29.48130371 49.86979492 -29.96260742 50.73958984 -30.45849609 51.63574219 C-47.97158916 83.42563008 -62.34765342 117.37781045 -53 154 C-51.61725942 158.48655188 -49.95202548 162.73239129 -48 167 C-47.58105469 167.93199219 -47.16210938 168.86398437 -46.73046875 169.82421875 C-36.8370623 189.81061046 -17.43348899 200.7959063 2.97265625 207.765625 C4.62422637 208.2919689 6.27913465 208.80797436 7.9375 209.3125 C8.6495459 209.53043213 9.3615918 209.74836426 10.09521484 209.97290039 C12.71653099 210.72074815 15.34733271 211.37125215 18 212 C18.62179138 212.14780914 19.24358276 212.29561829 19.88421631 212.44790649 C35.62073976 216.09844964 51.59947432 217.70072477 67.6395874 219.34472656 C70.42256391 219.63190186 73.20463746 219.92729307 75.98670197 220.22315407 C87.97107718 221.49688035 99.95405698 222.75479616 111.96289062 223.77685547 C113.43248702 223.90455784 114.90207134 224.0323992 116.37164307 224.16038513 C119.14626586 224.40178995 121.92154982 224.62770156 124.69818115 224.84461975 C131.04522788 225.39266871 136.35932468 225.9484264 142 229 C142 229.66 142 230.32 142 231 C135.96482626 233.01172458 129.20990049 232.72400586 122.875 233.0625 C122.05177246 233.10669067 121.22854492 233.15088135 120.38037109 233.19641113 C-3.50404259 239.62727826 -3.50404259 239.62727826 -46.6875 202.25 C-63.93367476 185.98286572 -74.25865663 164.22230751 -75.22265625 140.3984375 C-75.50199159 129.29539926 -74.61568001 118.79269072 -72 108 C-71.81727539 107.24315918 -71.63455078 106.48631836 -71.44628906 105.70654297 C-66.48939337 85.98070271 -57.65291338 67.27684028 -47 50 C-46.41734375 49.03191406 -45.8346875 48.06382812 -45.234375 47.06640625 C-41.27920499 40.64370901 -36.86400103 34.7602469 -32 29 C-31.33871094 28.21496094 -30.67742188 27.42992187 -29.99609375 26.62109375 C-21.19175971 16.43839039 -10.44047661 8.42114862 0 0 Z " fill="#FE6300" transform="translate(79,145)"/>
<path d="M0 0 C0.91152832 -0.00767395 1.82305664 -0.0153479 2.76220703 -0.02325439 C32.68884384 -0.22475107 32.68884384 -0.22475107 40.5625 7.375 C47.95218258 29.54404775 41.06690757 66.43214843 31.5625 87.375 C29.40625 90.2734375 29.40625 90.2734375 27.5625 92.375 C26.0775 91.88 26.0775 91.88 24.5625 91.375 C24.18037822 78.08951331 25.51997064 65.09911033 26.92895508 51.90332031 C29.12940688 36.07614495 29.12940688 36.07614495 27.5625 20.375 C17.95862401 9.06506813 -2.29427007 8.75730844 -16.09326172 7.61767578 C-29.19409041 6.66700972 -42.31956725 6.0383082 -55.4375 5.375 C-42.63102577 -3.16264948 -15.07106695 0.05366726 0 0 Z " fill="#FE6300" transform="translate(201.4375,284.625)"/>
</svg>
